<svg xmlns="http://www.w3.org/2000/svg" viewBox="0 0 540.18 243.08"><defs><style>.cls-1{fill:#f34d4d;}.cls-2{fill:#d74c4c;}.cls-3{fill:#e34c4c;}.cls-4{fill:#cd4b4b;}.cls-5{fill:#e2814e;}.cls-6{fill:#23df5f;}.cls-7{fill:#ea5924;}.cls-8{fill:#cd4820;}.cls-9{fill:#e3b051;}.cls-10{fill:#2ceb36;}.cls-11{fill:#2ad7de;}.cls-12{fill:#4daccd;}.cls-13{fill:#fec554;}.cls-14{fill:#ea9a2b;}.cls-15{fill:#32c723;}.cls-16{fill:#25babe;}.cls-17{fill:#fecb55;}.cls-18{fill:#53fdab;}.cls-19{fill:#51d8fd;}.cls-20{fill:#4eb5d7;}.cls-21{fill:#50ccf3;}.cls-22{fill:#444;}</style></defs><title>Asset 1</title><g id="Layer_2" data-name="Layer 2"><g id="Layer_1-2" data-name="Layer 1"><polygon class="cls-1" points="157.88 0 210.51 30.39 157.88 60.77 157.88 0"/><polygon class="cls-2" points="210.51 91.15 157.88 60.77 210.51 30.39 210.51 91.15"/><polygon class="cls-3" points="157.88 60.77 105.26 30.39 157.88 0 157.88 60.77"/><polygon class="cls-4" points="157.88 60.77 210.51 91.15 157.88 121.54 157.88 60.77"/><polygon class="cls-5" points="105.26 91.15 52.63 60.77 105.26 30.39 105.26 91.15"/><polygon class="cls-6" points="105.26 91.15 157.88 121.54 105.26 151.92 105.26 91.15"/><polygon class="cls-7" points="105.26 30.39 157.88 60.77 105.26 91.15 105.26 30.39"/><polygon class="cls-8" points="157.88 121.54 105.26 91.15 157.88 60.77 157.88 121.54"/><polygon class="cls-9" points="52.63 121.54 0 91.15 52.63 60.77 52.63 121.54"/><polygon class="cls-10" points="52.63 121.54 105.26 151.92 52.63 182.31 52.63 121.54"/><polygon class="cls-11" points="105.26 151.92 157.88 182.31 105.26 212.69 105.26 151.92"/><polygon class="cls-12" points="157.88 182.31 210.51 212.69 157.88 243.08 157.88 182.31"/><polygon class="cls-13" points="0 91.15 52.63 121.54 0 151.92 0 91.15"/><polygon class="cls-14" points="52.63 60.77 105.26 91.15 52.63 121.54 52.63 60.77"/><polygon class="cls-15" points="105.26 151.92 52.63 121.54 105.26 91.15 105.26 151.92"/><polygon class="cls-16" points="157.88 182.31 105.26 151.92 157.88 121.54 157.88 182.31"/><polygon class="cls-17" points="52.63 182.31 0 151.92 52.63 121.54 52.63 182.31"/><polygon class="cls-18" points="105.26 212.69 52.63 182.31 105.26 151.92 105.26 212.69"/><polygon class="cls-19" points="157.88 243.08 105.26 212.69 157.88 182.31 157.88 243.08"/><polygon class="cls-20" points="210.51 212.69 157.88 182.31 210.51 151.92 210.51 212.69"/><polygon class="cls-21" points="157.88 121.54 210.51 151.92 157.88 182.31 157.88 121.54"/><path class="cls-22" d="M265.05,30.52h2.73V47.66h19.58V30.52h2.73V69.61h-2.73V50H267.78V69.61h-2.73Z"/><path class="cls-22" d="M311.8,32.89H298.21V30.52h29.9v2.37H314.52V69.61H311.8Z"/><path class="cls-22" d="M373.55,30.52h2.61V67.24h20.46v2.37H373.55Z"/><path class="cls-22" d="M336.35,30.38h3.5l6.53,18.21,2.31,6.94h.24l2.25-6.94,6.47-18.21h3.5V69.48H358.6V42.13q0-2,.09-4.36t.21-4.42h-.18l-2.25,7L349.7,58.8h-1.9L341,40.35l-2.37-7h-.12q.12,2,.24,4.42t.12,4.36V69.48h-2.49Z"/><path class="cls-22" d="M276.2,104.07H262.62V101.7h29.9v2.37H278.93V140.8H276.2Z"/><path class="cls-22" d="M302.9,101.7H326v2.37H305.63v14.77h17.2v2.37h-17.2v17.2h21v2.37H302.9Z"/><path class="cls-22" d="M336.35,101.7h3.5l6.53,18.21,2.31,6.94h.24l2.25-6.94,6.47-18.21h3.5V140.8H358.6V113.45q0-2,.09-4.36t.21-4.42h-.18l-2.25,7-6.76,18.45h-1.9L341,111.67l-2.37-7h-.12q.12,2,.24,4.42t.12,4.36V140.8h-2.49Z"/><path class="cls-22" d="M373.55,101.7h10.68a27.42,27.42,0,0,1,5.84.56,11.7,11.7,0,0,1,4.39,1.87,8.4,8.4,0,0,1,2.76,3.38,12.25,12.25,0,0,1,.95,5.1q0,5.76-3.68,8.57T384.23,124h-8V140.8h-2.73Zm10,20q6.05,0,8.93-2.14t2.88-6.94a10,10,0,0,0-.74-4.12,6.37,6.37,0,0,0-2.19-2.64,9.42,9.42,0,0,0-3.68-1.42,28.51,28.51,0,0,0-5.19-.42h-7.24v17.68Z"/><path class="cls-22" d="M411,101.7h2.61v36.72h20.46v2.37H411Z"/><path class="cls-22" d="M463.24,127.39H447.76l-4.63,13.41H440.4l13.76-39.09h2.73l13.76,39.09h-2.91Zm-.77-2.31L460,117.78q-1.19-3.5-2.25-6.71t-2.08-6.82h-.24q-1,3.62-2.08,6.82t-2.25,6.71l-2.49,7.29Z"/><path class="cls-22" d="M489.76,104.07H476.17V101.7h29.9v2.37H492.49V140.8h-2.73Z"/><path class="cls-22" d="M516.45,101.7h23.13v2.37H519.18v14.77h17.2v2.37h-17.2v17.2h21v2.37H516.45Z"/><path class="cls-22" d="M268.67,172.89h2.61v36.72h20.46V212H268.67Z"/><path class="cls-22" d="M320.87,198.57H305.39L300.76,212H298l13.76-39.09h2.73L328.29,212h-2.91Zm-.77-2.31L317.61,189q-1.19-3.5-2.25-6.71t-2.08-6.82H313q-1,3.62-2.08,6.82T308.71,189l-2.49,7.29Z"/><path class="cls-22" d="M336.41,172.89h2.85l15.25,27.65,4.21,7.71h.12q-.12-2.85-.24-5.67t-.12-5.67v-24h2.61V212h-2.85L343,184.34l-4.21-7.71h-.12q.12,2.85.24,5.58t.12,5.58V212h-2.61Z"/><path class="cls-22" d="M370,192.34a26.93,26.93,0,0,1,1.22-8.36,18.77,18.77,0,0,1,3.44-6.38,14.9,14.9,0,0,1,5.31-4,16.51,16.51,0,0,1,6.88-1.39,13.8,13.8,0,0,1,3.53.42,13.07,13.07,0,0,1,2.85,1.1,12.84,12.84,0,0,1,2.25,1.51,20.5,20.5,0,0,1,1.75,1.66l-1.6,1.78a13.6,13.6,0,0,0-3.56-2.82,10.6,10.6,0,0,0-5.22-1.16,13.33,13.33,0,0,0-5.81,1.25,12.39,12.39,0,0,0-4.42,3.53,16.41,16.41,0,0,0-2.79,5.55,25.61,25.61,0,0,0-1,7.35,27.35,27.35,0,0,0,.92,7.39,16.18,16.18,0,0,0,2.7,5.6,12.16,12.16,0,0,0,10,4.87,14.93,14.93,0,0,0,4.86-.77,8.89,8.89,0,0,0,3.62-2.19V195.07h-9v-2.31h11.69v15.48a13.34,13.34,0,0,1-4.66,3.2,16.68,16.68,0,0,1-6.67,1.25,15.35,15.35,0,0,1-6.67-1.42,14.57,14.57,0,0,1-5.13-4.06,19.22,19.22,0,0,1-3.32-6.41A28,28,0,0,1,370,192.34Z"/><path class="cls-22" d="M407.42,172.89h2.73V197a21.1,21.1,0,0,0,.8,6.32,11.09,11.09,0,0,0,2.13,4,7.6,7.6,0,0,0,3.12,2.17,10.72,10.72,0,0,0,3.74.65,11.15,11.15,0,0,0,3.83-.65,7.79,7.79,0,0,0,3.17-2.17,10.83,10.83,0,0,0,2.17-4,21.18,21.18,0,0,0,.8-6.32V172.89h2.55v24.44a22.68,22.68,0,0,1-1,7.42,12.54,12.54,0,0,1-2.76,4.72,9.82,9.82,0,0,1-4,2.49,15.47,15.47,0,0,1-9.46,0,9.79,9.79,0,0,1-4-2.49,12.54,12.54,0,0,1-2.76-4.72,22.68,22.68,0,0,1-1-7.42Z"/><path class="cls-22" d="M463.24,198.57H447.76L443.13,212H440.4l13.76-39.09h2.73L470.66,212h-2.91Zm-.77-2.31L460,189q-1.19-3.5-2.25-6.71t-2.08-6.82h-.24q-1,3.62-2.08,6.82T451.08,189l-2.49,7.29Z"/><path class="cls-22" d="M476.83,192.34A26.93,26.93,0,0,1,478,184a18.77,18.77,0,0,1,3.44-6.38,14.9,14.9,0,0,1,5.31-4,16.51,16.51,0,0,1,6.88-1.39,13.8,13.8,0,0,1,3.53.42,13.07,13.07,0,0,1,2.85,1.1,12.84,12.84,0,0,1,2.25,1.51,20.5,20.5,0,0,1,1.75,1.66l-1.6,1.78a13.6,13.6,0,0,0-3.56-2.82,10.6,10.6,0,0,0-5.22-1.16,13.33,13.33,0,0,0-5.81,1.25,12.39,12.39,0,0,0-4.42,3.53,16.41,16.41,0,0,0-2.79,5.55,25.61,25.61,0,0,0-1,7.35,27.35,27.35,0,0,0,.92,7.39,16.18,16.18,0,0,0,2.7,5.6,12.16,12.16,0,0,0,10,4.87,14.93,14.93,0,0,0,4.86-.77,8.89,8.89,0,0,0,3.62-2.19V195.07h-9v-2.31h11.69v15.48a13.34,13.34,0,0,1-4.66,3.2,16.68,16.68,0,0,1-6.67,1.25,15.35,15.35,0,0,1-6.67-1.42,14.57,14.57,0,0,1-5.13-4.06A19.22,19.22,0,0,1,478,200.8,28,28,0,0,1,476.83,192.34Z"/><path class="cls-22" d="M516.45,172.89h23.13v2.37H519.18V190h17.2v2.37h-17.2v17.2h21V212H516.45Z"/></g></g></svg>